<svg width="161" height="81" viewBox="0 0 161 81" fill="none" xmlns="http://www.w3.org/2000/svg">
<path d="M7.68783 20.1081C8.8356 13.3541 14.4748 8.27452 21.3116 7.83635L132.489 0.710907C139.059 0.289856 145.115 4.26517 147.341 10.4603L159.738 44.9529C162.945 53.8779 157.035 63.4712 147.621 64.62L16.6807 80.5984C6.86485 81.7962 -1.33503 73.2024 0.321683 63.4536L7.68783 20.1081Z" fill="#A7DE93"/>
<path d="M40.8359 40.7598H37.1836L37.1641 38.748H40.2305C40.7708 38.748 41.2135 38.6797 41.5586 38.543C41.9036 38.3997 42.1608 38.1947 42.3301 37.9277C42.5059 37.6543 42.5938 37.3223 42.5938 36.9316C42.5938 36.4889 42.5091 36.1309 42.3398 35.8574C42.1771 35.584 41.9199 35.3854 41.5684 35.2617C41.2233 35.138 40.7773 35.0762 40.2305 35.0762H38.1992V47H35.2695V32.7812H40.2305C41.0573 32.7812 41.7962 32.8594 42.4473 33.0156C43.1048 33.1719 43.6615 33.4095 44.1172 33.7285C44.5729 34.0475 44.9212 34.4512 45.1621 34.9395C45.403 35.4212 45.5234 35.9941 45.5234 36.6582C45.5234 37.2441 45.39 37.7845 45.123 38.2793C44.8626 38.7741 44.4492 39.1777 43.8828 39.4902C43.3229 39.8027 42.5905 39.9753 41.6855 40.0078L40.8359 40.7598ZM40.709 47H36.3828L37.5254 44.7148H40.709C41.2233 44.7148 41.6432 44.6335 41.9688 44.4707C42.2943 44.3014 42.5352 44.0736 42.6914 43.7871C42.8477 43.5007 42.9258 43.1719 42.9258 42.8008C42.9258 42.3841 42.8542 42.0228 42.7109 41.7168C42.5742 41.4108 42.3529 41.1764 42.0469 41.0137C41.7409 40.8444 41.3372 40.7598 40.8359 40.7598H38.0137L38.0332 38.748H41.5488L42.2227 39.5391C43.0885 39.526 43.7852 39.679 44.3125 39.998C44.8464 40.3105 45.2337 40.7174 45.4746 41.2188C45.722 41.7201 45.8457 42.2572 45.8457 42.8301C45.8457 43.7415 45.6471 44.5098 45.25 45.1348C44.8529 45.7533 44.2702 46.2188 43.502 46.5312C42.7402 46.8438 41.8092 47 40.709 47ZM47.418 41.8242V41.6191C47.418 40.8444 47.5286 40.1315 47.75 39.4805C47.9714 38.8229 48.2936 38.2533 48.7168 37.7715C49.14 37.2897 49.6608 36.9154 50.2793 36.6484C50.8978 36.375 51.6074 36.2383 52.4082 36.2383C53.209 36.2383 53.9219 36.375 54.5469 36.6484C55.1719 36.9154 55.696 37.2897 56.1191 37.7715C56.5488 38.2533 56.8743 38.8229 57.0957 39.4805C57.3171 40.1315 57.4277 40.8444 57.4277 41.6191V41.8242C57.4277 42.5924 57.3171 43.3053 57.0957 43.9629C56.8743 44.6139 56.5488 45.1836 56.1191 45.6719C55.696 46.1536 55.1751 46.528 54.5566 46.7949C53.9382 47.0618 53.2285 47.1953 52.4277 47.1953C51.627 47.1953 50.9141 47.0618 50.2891 46.7949C49.6706 46.528 49.1465 46.1536 48.7168 45.6719C48.2936 45.1836 47.9714 44.6139 47.75 43.9629C47.5286 43.3053 47.418 42.5924 47.418 41.8242ZM50.2305 41.6191V41.8242C50.2305 42.2669 50.2695 42.6803 50.3477 43.0645C50.4258 43.4486 50.5495 43.7871 50.7188 44.0801C50.8945 44.3665 51.1224 44.5911 51.4023 44.7539C51.6823 44.9167 52.0241 44.998 52.4277 44.998C52.8184 44.998 53.1536 44.9167 53.4336 44.7539C53.7135 44.5911 53.9382 44.3665 54.1074 44.0801C54.2767 43.7871 54.4004 43.4486 54.4785 43.0645C54.5632 42.6803 54.6055 42.2669 54.6055 41.8242V41.6191C54.6055 41.1895 54.5632 40.7858 54.4785 40.4082C54.4004 40.0241 54.2734 39.6855 54.0977 39.3926C53.9284 39.0931 53.7038 38.8587 53.4238 38.6895C53.1439 38.5202 52.8053 38.4355 52.4082 38.4355C52.0111 38.4355 51.6725 38.5202 51.3926 38.6895C51.1191 38.8587 50.8945 39.0931 50.7188 39.3926C50.5495 39.6855 50.4258 40.0241 50.3477 40.4082C50.2695 40.7858 50.2305 41.1895 50.2305 41.6191ZM58.707 41.8242V41.6191C58.707 40.8444 58.8177 40.1315 59.0391 39.4805C59.2604 38.8229 59.5827 38.2533 60.0059 37.7715C60.429 37.2897 60.9499 36.9154 61.5684 36.6484C62.1868 36.375 62.8965 36.2383 63.6973 36.2383C64.498 36.2383 65.2109 36.375 65.8359 36.6484C66.4609 36.9154 66.985 37.2897 67.4082 37.7715C67.8379 38.2533 68.1634 38.8229 68.3848 39.4805C68.6061 40.1315 68.7168 40.8444 68.7168 41.6191V41.8242C68.7168 42.5924 68.6061 43.3053 68.3848 43.9629C68.1634 44.6139 67.8379 45.1836 67.4082 45.6719C66.985 46.1536 66.4642 46.528 65.8457 46.7949C65.2272 47.0618 64.5176 47.1953 63.7168 47.1953C62.916 47.1953 62.2031 47.0618 61.5781 46.7949C60.9596 46.528 60.4355 46.1536 60.0059 45.6719C59.5827 45.1836 59.2604 44.6139 59.0391 43.9629C58.8177 43.3053 58.707 42.5924 58.707 41.8242ZM61.5195 41.6191V41.8242C61.5195 42.2669 61.5586 42.6803 61.6367 43.0645C61.7148 43.4486 61.8385 43.7871 62.0078 44.0801C62.1836 44.3665 62.4115 44.5911 62.6914 44.7539C62.9714 44.9167 63.3132 44.998 63.7168 44.998C64.1074 44.998 64.4427 44.9167 64.7227 44.7539C65.0026 44.5911 65.2272 44.3665 65.3965 44.0801C65.5658 43.7871 65.6895 43.4486 65.7676 43.0645C65.8522 42.6803 65.8945 42.2669 65.8945 41.8242V41.6191C65.8945 41.1895 65.8522 40.7858 65.7676 40.4082C65.6895 40.0241 65.5625 39.6855 65.3867 39.3926C65.2174 39.0931 64.9928 38.8587 64.7129 38.6895C64.4329 38.5202 64.0944 38.4355 63.6973 38.4355C63.3001 38.4355 62.9616 38.5202 62.6816 38.6895C62.4082 38.8587 62.1836 39.0931 62.0078 39.3926C61.8385 39.6855 61.7148 40.0241 61.6367 40.4082C61.5586 40.7858 61.5195 41.1895 61.5195 41.6191ZM73.2578 31.9902V47H70.4453V31.9902H73.2578ZM79.918 36.4336L75.3281 41.668L72.8672 44.1582L71.8418 42.127L73.7949 39.6465L76.5391 36.4336H79.918ZM76.998 47L73.873 42.1172L75.8164 40.418L80.2402 47H76.998ZM97.8574 32.7812V47H94.9277L89.2148 37.4688V47H86.2852V32.7812H89.2148L94.9375 42.3223V32.7812H97.8574ZM99.7812 41.8242V41.6191C99.7812 40.8444 99.8919 40.1315 100.113 39.4805C100.335 38.8229 100.657 38.2533 101.08 37.7715C101.503 37.2897 102.024 36.9154 102.643 36.6484C103.261 36.375 103.971 36.2383 104.771 36.2383C105.572 36.2383 106.285 36.375 106.91 36.6484C107.535 36.9154 108.059 37.2897 108.482 37.7715C108.912 38.2533 109.238 38.8229 109.459 39.4805C109.68 40.1315 109.791 40.8444 109.791 41.6191V41.8242C109.791 42.5924 109.68 43.3053 109.459 43.9629C109.238 44.6139 108.912 45.1836 108.482 45.6719C108.059 46.1536 107.538 46.528 106.92 46.7949C106.301 47.0618 105.592 47.1953 104.791 47.1953C103.99 47.1953 103.277 47.0618 102.652 46.7949C102.034 46.528 101.51 46.1536 101.08 45.6719C100.657 45.1836 100.335 44.6139 100.113 43.9629C99.8919 43.3053 99.7812 42.5924 99.7812 41.8242ZM102.594 41.6191V41.8242C102.594 42.2669 102.633 42.6803 102.711 43.0645C102.789 43.4486 102.913 43.7871 103.082 44.0801C103.258 44.3665 103.486 44.5911 103.766 44.7539C104.046 44.9167 104.387 44.998 104.791 44.998C105.182 44.998 105.517 44.9167 105.797 44.7539C106.077 44.5911 106.301 44.3665 106.471 44.0801C106.64 43.7871 106.764 43.4486 106.842 43.0645C106.926 42.6803 106.969 42.2669 106.969 41.8242V41.6191C106.969 41.1895 106.926 40.7858 106.842 40.4082C106.764 40.0241 106.637 39.6855 106.461 39.3926C106.292 39.0931 106.067 38.8587 105.787 38.6895C105.507 38.5202 105.169 38.4355 104.771 38.4355C104.374 38.4355 104.036 38.5202 103.756 38.6895C103.482 38.8587 103.258 39.0931 103.082 39.3926C102.913 39.6855 102.789 40.0241 102.711 40.4082C102.633 40.7858 102.594 41.1895 102.594 41.6191ZM114.537 44.2656L116.734 36.4336H118.521L117.945 39.5098L115.748 47H114.254L114.537 44.2656ZM113.424 36.4336L114.996 44.2559L115.143 47H113.385L110.709 36.4336H113.424ZM120.533 44.1289L122.066 36.4336H124.791L122.115 47H120.367L120.533 44.1289ZM118.766 36.4336L120.953 44.207L121.256 47H119.752L117.555 39.5195L116.998 36.4336H118.766Z" fill="#303056"/>
</svg>
